<svg xmlns="http://www.w3.org/2000/svg" xmlns:xlink="http://www.w3.org/1999/xlink" viewBox="0 0 256 256" width="50px" height="50px">
  <g fill="none" stroke="#ffffff" stroke-width="2" stroke-linecap="round" stroke-linejoin="round" stroke-miterlimit="10" font-family="none" font-weight="none" font-size="none" text-anchor="none" style="mix-blend-mode: normal">
    <g transform="scale(5.12,5.12)">
      <path d="M44.8,14.4C43.8,10.8,41,8,37.5,7.6C32.5,7,25,7,25,7s-7.5,0-12.5,0.6c-3.5,0.4-6.3,3.2-7.3,6.8C4.6,18.2,4,24.2,4,24.2s0,6.1,1.1,9.8c1,3.6,3.9,6.4,7.3,6.8C17.5,41,25,41,25,41s7.5,0,12.5-0.6c3.5-0.4,6.3-3.2,7.3-6.8c1.1-3.6,1.1-9.8,1.1-9.8S45.8,18,44.8,14.4zM21,31.6V16.8l10.6,7.4L21,31.6z"></path>
    </g>
  </g>
</svg>
